<svg width="32" height="32" viewBox="0 0 32 32" fill="none" xmlns="http://www.w3.org/2000/svg">
<g id="Iconly/Bulk/Discovery">
<g id="Discovery">
<path id="Fill 1" opacity="0.4" d="M29.3332 15.9997C29.3332 23.3637 23.3638 29.333 15.9998 29.333C8.63584 29.333 2.6665 23.3637 2.6665 15.9997C2.6665 8.63705 8.63584 2.66638 15.9998 2.66638C23.3638 2.66638 29.3332 8.63705 29.3332 15.9997Z" fill="#716FE7"/>
<path id="Fill 4" d="M21.1463 11.6063L18.9863 18.433C18.9063 18.713 18.6796 18.9397 18.3996 19.021L11.5996 21.153C11.1463 21.301 10.7063 20.8597 10.853 20.4063L12.9863 13.5663C13.0663 13.2863 13.293 13.073 13.573 12.9797L20.3996 10.8463C20.8663 10.6997 21.293 11.1397 21.1463 11.6063Z" fill="#716FE7"/>
</g>
</g>
</svg>
